<?xml version="1.0" encoding="UTF-8"?>
<svg width="61px" height="36px" viewBox="0 0 61 36" version="1.1" xmlns="http://www.w3.org/2000/svg" xmlns:xlink="http://www.w3.org/1999/xlink">
    <!-- Generator: Sketch 48.2 (47327) - http://www.bohemiancoding.com/sketch -->
    <title>logo-color</title>
    <desc>Created with Sketch.</desc>
    <defs></defs>
    <g id="header-bg" stroke="none" stroke-width="1" fill="none" fill-rule="evenodd" transform="translate(-30.000000, -22.000000)">
        <g id="logo-color">
            <g transform="translate(29.000000, 22.000000)">
                <circle id="Oval" fill="#0036FD" cx="40" cy="5" r="5"></circle>
                <circle id="Oval-Copy-2" fill="#FFD900" cx="40" cy="31" r="5"></circle>
                <circle id="Oval-Copy" fill="#0FD056" cx="57" cy="18" r="5"></circle>
                <path d="M1.35,24 L1.35,11.436 L9.126,11.436 L9.126,13.38 L3.888,13.38 L3.888,16.674 L7.884,16.674 L7.884,18.618 L3.888,18.618 L3.888,24 L1.35,24 Z M14.859,13.677 C14.5409984,13.9350013 14.382,14.2919977 14.382,14.748 C14.382,15.2040023 14.4989988,15.5609987 14.733,15.819 C14.9670011,16.0770013 15.2759981,16.2749993 15.66,16.413 C16.0440019,16.5510007 16.4639977,16.6739995 16.92,16.782 C17.3760023,16.8900005 17.8319977,17.0219992 18.288,17.178 C18.7440023,17.3340008 19.1639981,17.5259989 19.548,17.754 C19.9320019,17.9820011 20.2409988,18.3149978 20.475,18.753 C20.7090011,19.1910022 20.826,19.7219969 20.826,20.346 C20.826,21.3780052 20.4150041,22.2659963 19.593,23.01 C18.7709959,23.7540037 17.6790068,24.126 16.317,24.126 C14.9549932,24.126 13.8540042,23.8050032 13.014,23.163 C12.1739958,22.5209968 11.754,21.6180058 11.754,20.454 L14.454,20.454 C14.5500005,21.5580055 15.1799942,22.11 16.344,22.11 C16.9200029,22.11 17.3759983,21.9600015 17.712,21.66 C18.0480017,21.3599985 18.216,20.9610025 18.216,20.463 C18.216,19.9649975 17.9940022,19.5720014 17.55,19.284 C17.1059978,18.9959986 16.5690031,18.7800007 15.939,18.636 C15.3089968,18.4919993 14.6760032,18.318001 14.04,18.114 C13.4039968,17.909999 12.8640022,17.5530025 12.42,17.043 C11.9759978,16.5329974 11.754,15.8580042 11.754,15.018 C11.754,13.8779943 12.1679958,12.9660034 12.996,12.282 C13.8240041,11.5979966 14.8889935,11.256 16.191,11.256 C17.4930065,11.256 18.539996,11.552997 19.332,12.147 C20.1240039,12.741003 20.5559996,13.6439939 20.628,14.856 L17.856,14.856 C17.8079997,14.3759976 17.6280015,13.9950014 17.316,13.713 C17.0039984,13.4309986 16.5960025,13.29 16.092,13.29 C15.5879975,13.29 15.1770016,13.4189987 14.859,13.677 Z" id="fs" fill="#000000"></path>
            </g>
        </g>
    </g>
</svg>